<?xml version="1.0" encoding="UTF-8"?>
<svg width="35px" height="35px" viewBox="0 0 35 35" version="1.1" xmlns="http://www.w3.org/2000/svg"
     xmlns:xlink="http://www.w3.org/1999/xlink">
    <!-- Generator: Sketch 47.1 (45422) - http://www.bohemiancoding.com/sketch -->
    <title>about nerd</title>
    <desc>Created with Sketch.</desc>
    <defs></defs>
    <g id="Page-1" stroke="none" stroke-width="1" fill="none" fill-rule="evenodd">
        <g id="home" transform="translate(-190.000000, -733.000000)" fill-rule="nonzero" fill="#9B9B9B"
           class="shadable-fill">
            <g id="about-nerd"
               transform="translate(207.500000, 750.500000) rotate(-360.000000) translate(-207.500000, -750.500000) translate(190.000000, 733.000000)">
                <path d="M0.232557414,14.0267582 C0.232557414,14.7696937 0.992886031,15.4364307 1.12594354,16.1507917 C1.26850515,16.8746776 0.8313162,17.7700101 1.09743122,18.4557967 C1.37305034,19.1415833 2.313957,19.4844766 2.70362542,20.0940646 C3.08378973,20.7131775 2.97924454,21.7037582 3.47345814,22.2657222 C3.92965531,22.789587 4.86105787,22.8276862 5.44080844,23.2563028 C5.56436184,23.4086999 5.69741935,23.5420473 5.83047686,23.6753946 C6.17262473,24.1802098 6.39121921,24.8564716 6.89493692,25.1707904 C7.06601086,25.2755634 7.25609301,25.3327123 7.45567927,25.3708115 C9.14741045,30.114264 12.9300453,34.7623732 17.929206,34.7623732 C23.1659693,34.7623732 27.0626535,29.6761226 28.6308313,24.7040745 C28.6878559,24.627876 28.7258723,24.5516775 28.7733929,24.475479 C29.5622338,24.1802098 30.2750419,23.5706217 30.7977678,22.7514877 C31.1018993,22.6371899 31.3965266,22.5038425 31.5961129,22.275247 C32.0902314,21.7228078 31.9762772,20.7131775 32.3659456,20.1035895 C32.755614,19.4749517 33.7060248,19.1320585 33.9721398,18.4462719 C34.2476639,17.7604853 33.8009708,16.8651528 33.9435324,16.1412669 C34.086094,15.4269059 34.8369185,14.7696937 34.8369185,14.0172334 C34.8369185,13.2647731 34.0765899,12.607561 33.9435324,11.8931999 C33.8009708,11.1693141 34.2382548,10.2739816 33.9721398,9.588195 C33.6965207,8.9024084 32.755519,8.5595151 32.3659456,7.94992702 C31.9857813,7.33081412 32.0903265,6.34023348 31.5961129,5.77826946 C31.1209075,5.23535508 30.113377,5.21630545 29.5431306,4.73053994 C28.9918923,4.26382407 28.8113143,3.27324343 28.1840431,2.87320125 C27.5757803,2.49220869 26.5968572,2.73032904 25.9315696,2.41601018 C25.2852903,2.11121614 24.8576055,1.1873092 24.1447974,0.958713668 C23.4605016,0.720593323 22.5671155,1.19683401 21.8448033,1.03491218 C21.1415944,0.882515158 20.5238274,0.0824307962 19.7824119,0.00623228559 C19.0600997,-0.069966225 18.2903621,0.577721115 17.5489466,0.577721115 C16.8075312,0.577721115 16.0377935,-0.069966225 15.3154813,0.00623228559 C14.5741609,0.0824307962 13.9563939,0.882515158 13.2530899,1.03491218 C12.5307777,1.19683401 11.6373916,0.730118136 10.9530959,0.958713668 C10.2497919,1.19683401 9.82210705,2.11121614 9.16632362,2.41601018 C8.49153197,2.73985385 7.51260888,2.49220869 6.91385009,2.87320125 C6.28657898,3.28276824 6.09649683,4.26382407 5.55476269,4.73053994 C4.99402034,5.20678064 3.97708081,5.23535508 3.50187543,5.77826946 C3.00766182,6.33070867 3.12171112,7.34033893 2.7320427,7.94992702 C2.34237428,8.57856473 1.39196351,8.92145803 1.1258485,9.60724462 C0.850229374,10.2930312 1.29692244,11.1883637 1.15436082,11.9122496 C0.983381923,12.6170858 0.232557414,13.2742979 0.232557414,14.0267582 Z M27.1291822,23.5421425 C26.9486042,24.1993547 26.7204106,24.8565668 26.4542955,25.5042541 C24.8290931,29.4761015 21.6737294,32.981233 17.938615,32.981233 C14.3650705,32.981233 11.3047479,29.7618459 9.6320249,25.9900197 C9.27086881,25.1899353 8.97624147,24.3612765 8.74814288,23.5230929 L8.58657305,22.951604 L7.99731837,22.8754055 C7.2940144,22.7801574 6.41013238,21.9705482 6.06798451,20.6180247 C5.70682841,19.1893026 6.16302558,17.7510557 7.0469076,17.5224602 C7.10393225,17.5129353 7.16095689,17.5034105 7.23698976,17.5034105 C7.2940144,17.5034105 7.33203083,17.5034105 7.38905548,17.5129353 L8.22541696,17.5891339 L8.34897036,16.7604751 C8.58657305,15.2174552 9.04277022,13.8077828 9.67004133,12.5790818 C9.89813991,12.5219329 10.1262385,12.5028833 10.344833,12.5409825 C11.1051616,12.6933796 11.7324327,13.9125557 12.5782983,14.0173287 C13.3576351,14.103052 14.2605254,13.0648473 15.0873827,13.1124714 C15.8762237,13.1505706 16.6650646,14.2935483 17.491922,14.2935483 C18.3187793,14.2935483 19.0981162,13.1505706 19.8964612,13.1124714 C20.7328227,13.0743721 21.645217,14.1125768 22.4055457,14.0173287 C23.2419071,13.9220805 23.8881865,12.6933796 24.639011,12.5409825 C25.1807451,12.4362096 25.8080162,12.7505284 26.3782627,12.9505495 C26.9199968,14.0935272 27.3001611,15.3698522 27.5187556,16.7699999 L27.642309,17.5986587 L28.4786705,17.5224602 C28.6023189,17.5129353 28.7258723,17.5129353 28.8209134,17.531985 C29.6952913,17.7605805 30.1514885,19.1988274 29.7998365,20.6275495 C29.4576886,21.980073 28.5738066,22.7896822 27.8705026,22.8849303 L27.281248,22.9611289 L27.1291822,23.5421425 Z M22.0539887,17.6938116 C20.5523397,17.6938116 19.2787893,18.6177185 18.7465592,19.9416676 C17.843669,19.5606751 16.8172254,19.5321006 15.9143351,19.9035684 C15.372601,18.6081937 14.0895465,17.7033364 12.6164098,17.7033364 C10.6490595,17.7033364 9.04286526,19.3130299 9.04286526,21.2846664 C9.04286526,23.2563028 10.6490595,24.8659964 12.6164098,24.8659964 C14.4411984,24.8659964 15.9333434,23.4753736 16.1519378,21.7037582 C16.87425,21.1989431 17.843669,21.2370423 18.5374689,21.7990063 C18.7940798,23.5229976 20.2767206,24.8469467 22.0634928,24.8469467 C24.0308431,24.8469467 25.6371324,23.2372532 25.6371324,21.2656167 C25.6370373,19.2939803 24.0308431,17.6938116 22.0539887,17.6938116 Z M12.6069057,23.1420051 C11.580462,23.1420051 10.7441005,22.3133463 10.7441005,21.2751416 C10.7441005,20.2464617 11.5709579,19.4082781 12.6069057,19.4082781 C13.6333493,19.4082781 14.4697108,20.2369369 14.4697108,21.2751416 C14.4697108,22.3039167 13.6333493,23.1420051 12.6069057,23.1420051 Z M22.0539887,23.1420051 C21.0275451,23.1420051 20.1911836,22.3133463 20.1911836,21.2751416 C20.1911836,20.2464617 21.0179459,19.4082781 22.0539887,19.4082781 C23.0804323,19.4082781 23.9167938,20.2369369 23.9167938,21.2751416 C23.9167938,22.3039167 23.0804323,23.1420051 22.0539887,23.1420051 Z"
                      id="Shape"></path>
            </g>
        </g>
    </g>
</svg>
