<?xml version="1.0" encoding="UTF-8"?>
<svg width="16px" height="17px" viewBox="0 0 16 17" version="1.1" xmlns="http://www.w3.org/2000/svg"
     xmlns:xlink="http://www.w3.org/1999/xlink">
    <!-- Generator: Sketch 48.2 (47327) - http://www.bohemiancoding.com/sketch -->
    <title>white-close</title>
    <desc>Created with Sketch.</desc>
    <defs></defs>
    <g id="Artboard" stroke="none" stroke-width="1" fill="none" fill-rule="evenodd"
       transform="translate(-283.000000, -532.000000)">
        <g id="white-close" transform="translate(283.000000, 532.000000)" fill="#FFFFFF" fill-rule="nonzero"
           class="shadable-fill">
            <path d="M9.90076995,8.07444131 L15.6048826,2.37032864 C16.1299531,1.84525822 16.1299531,0.993953052 15.6048826,0.468957746 C15.0798122,-0.0561126761 14.2285822,-0.0561126761 13.7035117,0.468957746 L7.99932394,6.17314554 L2.29513615,0.468882629 C1.77006573,-0.0561877934 0.918835681,-0.0561877934 0.393765258,0.468882629 C-0.131230047,0.993953052 -0.131230047,1.84525822 0.393765258,2.37025352 L6.09795305,8.0743662 L0.393765258,13.778554 C-0.131230047,14.3036244 -0.131230047,15.1549296 0.393765258,15.6799249 C0.918835681,16.2049953 1.77006573,16.2049953 2.29513615,15.6799249 L7.99932394,9.97573709 L13.7035117,15.6799249 C14.228507,16.2049953 15.0798122,16.2049953 15.6048826,15.6799249 C16.1299531,15.1548545 16.1299531,14.3036244 15.6048826,13.778554 L9.90076995,8.07444131 Z"
                  id="Shape"></path>
        </g>
    </g>
</svg>
