<?xml version="1.0" encoding="UTF-8"?>
<svg width="41px" height="40px" viewBox="0 0 41 40" version="1.1" xmlns="http://www.w3.org/2000/svg"
     xmlns:xlink="http://www.w3.org/1999/xlink">
    <!-- Generator: Sketch 47.1 (45422) - http://www.bohemiancoding.com/sketch -->
    <title>github</title>
    <desc>Created with Sketch.</desc>
    <defs>
        <polygon id="path-1"
                 points="0 39.3439957 0 0.0690187043 40.9237603 0.0690187043 40.9237603 39.3439957"></polygon>
    </defs>
    <g id="Symbols" stroke="none" stroke-width="1" fill="none" fill-rule="evenodd">
        <g id="Download-My-Resume" transform="translate(0.000000, -2.000000)">
            <g id="github" transform="translate(0.000000, 2.000000)">
                <g id="Group-3" transform="translate(0.000000, 0.264405)">
                    <mask id="mask-2" fill="white" class="shadable-fill">
                        <use xlink:href="#path-1"></use>
                    </mask>
                    <g id="Clip-2"></g>
                    <path d="M20.4619479,0.0688853348 C9.16255124,0.0688853348 -0.000101652892,9.08299485 -0.000101652892,20.2036753 C-0.000101652892,29.0994194 5.86289835,36.646798 13.9930967,39.3091862 C15.0157248,39.4955701 15.3911628,38.8724012 15.3911628,38.3405904 C15.3911628,37.8607937 15.3725264,36.2743638 15.3633777,34.5919078 C9.6708157,35.8099046 8.46961736,32.216264 8.46961736,32.216264 C7.5388157,29.8893001 6.19767521,29.2701323 6.19767521,29.2701323 C4.34115455,28.0204603 6.33761736,28.0461339 6.33761736,28.0461339 C8.39236116,28.1881724 9.47428678,30.121363 9.47428678,30.121363 C11.299295,33.1991971 14.2611215,32.3092892 15.4287744,31.7948165 C15.6127661,30.4937972 16.1427165,29.6052231 16.7278983,29.1024202 C12.1829975,28.5936156 7.40531157,26.8668143 7.40531157,19.1517235 C7.40531157,16.9537945 8.20464215,15.1573077 9.51359256,13.7472589 C9.30113802,13.2401214 8.60074959,11.1922331 9.71215455,8.41881485 C9.71215455,8.41881485 11.4304273,7.87800163 15.3403364,10.4830409 C16.972543,10.03692 18.7230058,9.81319274 20.4619479,9.80519057 C22.2008901,9.81319274 23.9527083,10.03692 25.5879645,10.4830409 C29.4934686,7.87800163 31.2093694,8.41881485 31.2093694,8.41881485 C32.3231463,11.1922331 31.6227579,13.2401214 31.4103033,13.7472589 C32.7223033,15.1573077 33.5158736,16.9537945 33.5158736,19.1517235 C33.5158736,26.885486 28.7293777,28.5879474 24.1726174,29.0864158 C24.9065512,29.7112518 25.5605182,30.9365839 25.5605182,32.815093 C25.5605182,35.5091564 25.537138,37.6774107 25.537138,38.3405904 C25.537138,38.8767357 25.9054603,39.5045725 26.9423198,39.3068523 C35.0684521,36.6414633 40.9239975,29.096752 40.9239975,20.2036753 C40.9239975,9.08299485 31.7627,0.0688853348 20.4619479,0.0688853348"
                          id="Fill-1" fill="#FEFEFE" mask="url(#mask-2)"></path>
                </g>
                <path d="M7.84572408,29.4138664 C7.79279045,29.5647255 7.60493577,29.6098328 7.43379697,29.5060859 C7.25907619,29.4073509 7.16156687,29.2023631 7.21808248,29.0515041 C7.26982211,28.8971367 7.4576768,28.8540341 7.63199958,28.9572798 C7.80632236,29.0560148 7.90582166,29.2630074 7.84572408,29.4138664"
                      id="Fill-4" fill="#FEFEFE"></path>
                <path d="M8.63361678,30.2036718 C8.5261177,30.3009452 8.31559869,30.2557696 8.17338637,30.1020266 C8.02557515,29.948648 7.99832712,29.7431716 8.10731923,29.6448052 C8.21817765,29.5475318 8.42197798,29.5930718 8.56941594,29.7464504 C8.71722717,29.9016507 8.74596824,30.1049412 8.63361678,30.2036718"
                      id="Fill-6" fill="#FEFEFE"></path>
                <path d="M9.39741909,31.3114188 C9.26938412,31.3974421 9.05968361,31.317087 8.93026448,31.1380385 C8.80222952,30.9586565 8.80222952,30.7439317 8.93337885,30.6579084 C9.06279797,30.5718851 9.26938412,30.6495728 9.40053345,30.8269542 C9.52822238,31.0090035 9.52822238,31.2237284 9.39741909,31.3114188"
                      id="Fill-8" fill="#FEFEFE"></path>
                <path d="M10.4909174,32.4318558 C10.3787603,32.5535554 10.139876,32.5208799 9.96503306,32.3545015 C9.78612397,32.1924576 9.73631405,31.9620618 9.84880992,31.8403622 C9.96232231,31.7183291 10.202562,31.7526717 10.3787603,31.917383 C10.556314,32.0794269 10.6105289,32.3114898 10.4909174,32.4318558"
                      id="Fill-10" fill="#FEFEFE"></path>
                <path d="M12.0157107,33.106449 C11.9662397,33.2727823 11.7361653,33.3480367 11.5043967,33.2773538 C11.2729669,33.204561 11.1215041,33.0100953 11.1682645,32.8420038 C11.2163802,32.6742639 11.4474711,32.5958446 11.6809339,32.6714507 C11.9120248,32.7438918 12.0638264,32.9373025 12.0157107,33.106449"
                      id="Fill-12" fill="#FEFEFE"></path>
                <path d="M13.6904083,33.2325024 C13.6961686,33.4152749 13.4996397,33.5668513 13.2563504,33.5701545 C13.0117058,33.5760267 12.8134826,33.4281204 12.8107719,33.2482839 C12.8107719,33.0636763 13.0032347,32.9139349 13.2475405,32.9091638 C13.4908298,32.9040256 13.6904083,33.0511978 13.6904083,33.2325024"
                      id="Fill-14" fill="#FEFEFE"></path>
                <path d="M15.2486116,32.9603453 C15.2777521,33.1348991 15.1086694,33.3144917 14.8670744,33.362359 C14.6295455,33.4087868 14.4096364,33.3004554 14.3794793,33.1273411 C14.35,32.9481085 14.5217934,32.768516 14.7593223,32.7220883 C15.0012562,32.6774601 15.2177769,32.7825523 15.2486116,32.9603453"
                      id="Fill-16" fill="#FEFEFE"></path>
            </g>
        </g>
    </g>
</svg>
