<svg xmlns="http://www.w3.org/2000/svg" viewBox="0 0 500 500">
    <defs>
        <style>.cls-1{fill:#00d646;}.cls-2{fill:#231f20;}</style>
    </defs>
    <title>Artboard 1</title>
    <g id="Layer_2" data-name="Layer 2">
        <circle class="cls-1" cx="250" cy="250" r="250"/>
    </g>
    <g id="Layer_1" data-name="Layer 1">
        <path class="cls-2"
              d="M350,350H307.91V284.1c0-15.73-.29-35.94-21.89-35.94-21.92,0-25.28,17.12-25.28,34.8v67H218.65V214.47h40.41V233h.56c5.62-10.65,19.36-21.89,39.85-21.89,42.66,0,50.53,28.07,50.53,64.56V350ZM171.18,196a24.43,24.43,0,1,1,24.41-24.43A24.43,24.43,0,0,1,171.18,196Zm21,154.05H150.11V214.47h42.12V350ZM371,108H129a20.73,20.73,0,0,0-21,20.47v243A20.75,20.75,0,0,0,129,392H371c11.58,0,21-9.18,21-20.5v-243c0-11.3-9.44-20.47-21-20.47Z"/>
    </g>
</svg>
