<?xml version="1.0" encoding="UTF-8"?>
<svg width="32px" height="32px" viewBox="0 0 32 32" version="1.1" xmlns="http://www.w3.org/2000/svg"
     xmlns:xlink="http://www.w3.org/1999/xlink">
    <!-- Generator: Sketch 47.1 (45422) - http://www.bohemiancoding.com/sketch -->
    <title>download</title>
    <desc>Created with Sketch.</desc>
    <defs></defs>
    <g id="Symbols" stroke="none" stroke-width="1" fill="none" fill-rule="evenodd">
        <g id="Download-My-Resume" transform="translate(-168.000000, -5.000000)" fill-rule="nonzero" fill="#FFFFFF"
           class="shadable-fill">
            <g transform="translate(168.000000, 5.000000)" id="download">
                <g>
                    <path d="M21.9448926,21.1482217 C21.6301217,21.1482217 21.378305,21.3671696 21.3433305,21.6569537 C21.0705291,24.1426567 18.790189,26.0809899 16.0132106,26.0809899 C13.243227,26.0809899 10.962887,24.1426567 10.6830907,21.6569537 C10.6481161,21.3736093 10.3962995,21.1482217 10.0815286,21.1482217 L2.80682427,21.1482217 C1.28193433,21.1482217 0.0438356164,22.2880389 0.0438356164,23.6918815 L0.0438356164,29.0239077 C0.0438356164,30.4277504 1.28193433,31.5675676 2.80682427,31.5675676 L29.2335867,31.5675676 C30.7584766,31.5675676 31.9965753,30.4277504 31.9965753,29.0239077 L31.9965753,23.6983212 C31.9965753,22.2944785 30.7584766,21.1546613 29.2335867,21.1546613 L21.9448926,21.1546613 L21.9448926,21.1482217 Z"
                          id="Shape"></path>
                    <path d="M20.1472012,12.866838 L17.9857746,14.8566884 L17.9857746,1.88724299 C17.9857746,0.889097994 17.1044162,0.0777027027 16.0202055,0.0777027027 L16.0202055,0.0777027027 C14.9359947,0.0777027027 14.0546363,0.889097994 14.0546363,1.88724299 L14.0546363,14.8566884 L11.8932098,12.866838 C11.2286935,12.2550717 10.1654675,12.1005202 9.38203779,12.5834936 C8.31181687,13.2403374 8.20689325,14.5862233 9.06726693,15.3782996 L14.8590508,20.7103258 C15.5025823,21.3027732 16.5448236,21.3027732 17.1883551,20.7103258 L22.9801389,15.3782996 C23.8405126,14.5862233 23.735589,13.2403374 22.6653681,12.5834936 C21.8749435,12.0940806 20.8117175,12.2486321 20.1472012,12.866838 Z"
                          id="Shape"></path>
                </g>
            </g>
        </g>
    </g>
</svg>
