<?xml version="1.0" standalone="no"?>
<!DOCTYPE svg PUBLIC "-//W3C//DTD SVG 20010904//EN"
        "http://www.w3.org/TR/2001/REC-SVG-20010904/DTD/svg10.dtd">
<svg version="1.0" xmlns="http://www.w3.org/2000/svg"
     width="384.000000pt" height="384.000000pt" viewBox="0 0 384.000000 384.000000"
     preserveAspectRatio="xMidYMid meet">
    <metadata>
        Created by potrace 1.11, written by Peter Selinger 2001-2013
    </metadata>
    <g transform="translate(0.000000,384.000000) scale(0.100000,-0.100000)"
       fill="#000000" stroke="none">
        <path d="M1195 3784 c-41 -10 -94 -37 -89 -45 3 -5 -1 -9 -10 -9 -23 0 -84
-78 -102 -132 -8 -26 -21 -54 -28 -61 -6 -6 -38 -79 -71 -162 -33 -82 -62
-152 -66 -155 -4 -3 -17 -30 -29 -60 -12 -30 -33 -80 -46 -111 -13 -31 -24
-61 -24 -65 0 -5 -11 -25 -24 -44 -13 -19 -27 -46 -31 -60 -17 -60 -88 -230
-96 -230 -4 0 -11 -10 -14 -22 -10 -37 -98 -253 -105 -258 -6 -5 -30 -62 -94
-225 -20 -49 -36 -85 -36 -80 -1 6 -26 -53 -57 -130 -30 -77 -59 -142 -63
-145 -4 -3 -33 -70 -65 -150 -31 -80 -60 -147 -65 -150 -4 -3 -18 -34 -30 -70
-17 -50 -21 -80 -18 -130 6 -78 23 -114 86 -179 59 -61 134 -87 222 -78 90 10
143 39 189 105 23 31 45 62 51 69 5 7 10 16 10 20 0 8 50 135 71 178 5 11 16
40 24 65 9 24 20 47 24 50 5 3 30 58 55 123 26 65 57 139 71 165 13 26 28 58
33 72 l9 25 362 -1 c292 -1 365 2 376 13 8 7 30 44 51 82 21 39 41 68 46 65 4
-3 8 1 8 9 0 12 -73 14 -462 14 -507 0 -510 0 -530 -58 -5 -16 -14 -29 -19
-29 -5 0 -9 -5 -9 -11 0 -6 -11 -37 -24 -68 -14 -31 -39 -94 -58 -141 -18 -47
-36 -87 -40 -90 -6 -5 -48 -107 -100 -242 -6 -16 -13 -28 -17 -28 -4 0 -13
-17 -20 -37 -35 -104 -76 -163 -113 -165 -47 -2 -69 2 -63 12 3 6 -1 13 -9 16
-14 5 -26 29 -32 63 -4 19 47 153 96 256 21 44 59 134 85 200 26 66 53 127 60
135 11 14 95 222 95 236 0 4 6 15 14 23 8 9 36 70 61 136 26 66 55 136 66 155
23 45 49 105 90 210 18 47 36 87 40 90 7 5 27 53 85 200 20 52 42 100 50 107
7 7 16 23 19 36 15 51 99 252 107 255 4 2 8 8 8 13 0 6 9 29 20 51 11 23 20
46 20 50 0 5 12 34 26 63 21 45 31 56 60 64 41 11 79 1 107 -30 10 -11 41 -77
69 -147 28 -69 57 -133 65 -140 7 -7 13 -19 13 -25 0 -7 23 -66 50 -132 28
-66 50 -125 50 -132 0 -6 4 -13 9 -15 10 -3 98 -205 106 -242 3 -11 8 -22 13
-25 4 -3 16 -26 26 -51 10 -25 25 -61 33 -80 8 -19 26 -64 39 -100 14 -35 28
-67 33 -70 4 -3 12 -18 18 -35 33 -101 183 -80 183 25 0 21 -69 201 -80 210
-3 3 -30 66 -60 140 -30 74 -57 137 -60 140 -5 5 -21 40 -70 155 -10 22 -23
58 -30 80 -7 22 -18 47 -25 55 -7 8 -36 73 -64 145 -28 71 -55 132 -59 135 -4
3 -25 50 -46 105 -32 84 -46 108 -89 148 -28 27 -64 55 -80 63 -29 16 -146 27
-182 18z"/>
        <path d="M1225 3123 c-30 -8 -47 -37 -95 -158 -19 -48 -40 -89 -40 -80 -1 15
-29 -66 -31 -90 -5 -55 53 -111 105 -101 49 9 74 33 89 86 2 10 9 4 21 -17 9
-18 17 -36 17 -40 2 -16 21 -60 60 -140 63 -130 70 -120 -89 -119 -116 1 -136
4 -133 16 14 50 12 82 -8 113 -20 33 -28 37 -84 38 -41 2 -78 -47 -122 -156
-40 -101 -40 -137 1 -172 17 -16 38 -23 67 -23 269 -4 578 2 603 10 30 10 54
44 54 75 0 22 -42 139 -51 145 -5 3 -32 64 -60 135 -28 72 -62 149 -76 173
-14 23 -22 42 -18 42 3 0 0 12 -9 28 -19 36 -41 89 -55 134 -7 21 -28 53 -48
73 -34 34 -53 39 -98 28z"/>
        <path d="M2577 2454 c-1 -1 -29 -5 -62 -8 -62 -6 -95 -12 -123 -20 -9 -3 -30
-7 -45 -10 -16 -3 -50 -12 -75 -20 -26 -9 -51 -16 -57 -17 -5 0 -17 -6 -25
-14 -8 -7 -53 -32 -100 -55 -74 -36 -229 -148 -238 -172 -2 -4 -9 -8 -15 -9
-7 0 -26 -20 -44 -44 -24 -33 -31 -51 -28 -76 6 -45 36 -72 80 -72 30 0 44 8
78 44 23 24 60 58 82 74 21 17 47 37 55 46 24 23 117 74 180 99 30 12 57 25
60 29 9 13 134 44 230 57 53 7 230 7 275 0 105 -17 225 -47 225 -57 0 -4 17
-13 38 -20 50 -16 169 -78 189 -98 9 -9 38 -32 66 -51 62 -43 109 -100 113
-137 3 -34 -23 -80 -50 -87 -42 -11 -56 -5 -111 51 -30 31 -55 53 -55 49 0 -4
-22 10 -48 32 -65 55 -242 132 -301 132 -9 0 -22 5 -27 10 -6 6 -37 13 -70 16
-32 3 -71 6 -85 8 -45 4 -173 -12 -229 -29 -96 -29 -214 -77 -234 -94 -10 -9
-20 -14 -23 -12 -4 3 -65 -44 -98 -76 -7 -7 -15 -10 -18 -7 -3 3 -20 -14 -38
-37 -19 -23 -50 -58 -69 -78 -33 -35 -130 -212 -130 -238 0 -7 -4 -13 -9 -13
-8 0 -18 -27 -28 -80 -2 -14 -9 -45 -14 -69 -16 -71 -9 -250 13 -356 12 -52
25 -92 29 -89 5 3 9 0 9 -6 0 -12 30 -82 58 -138 51 -101 226 -269 325 -313
15 -7 27 -15 27 -19 0 -13 136 -65 195 -75 116 -19 158 -23 240 -20 110 5 137
9 232 35 78 21 133 45 145 63 3 6 14 12 22 13 9 1 39 18 66 38 28 20 52 36 55
36 3 0 36 32 74 71 74 74 106 120 165 232 34 64 36 74 36 160 0 51 -5 99 -10
107 -5 8 -10 11 -10 6 0 -5 -9 -1 -20 9 -18 16 -41 18 -228 17 -178 -1 -213 1
-242 16 -68 34 -56 124 18 138 20 4 139 7 263 7 195 0 230 -3 260 -18 112 -58
132 -105 127 -297 -3 -122 -5 -137 -31 -188 -73 -144 -121 -213 -214 -307 -68
-68 -171 -145 -214 -158 -11 -4 -17 -10 -14 -14 2 -5 -8 -14 -23 -21 -42 -19
-182 -70 -182 -66 0 2 -27 -5 -61 -15 -33 -10 -65 -17 -69 -14 -5 3 -10 0 -12
-7 -3 -8 -42 -12 -134 -12 -151 0 -215 5 -208 16 3 4 -3 8 -13 9 -76 3 -274
73 -326 116 -15 12 -45 30 -65 40 -20 10 -56 37 -79 60 -24 23 -43 40 -43 37
0 -3 -22 19 -50 48 -27 29 -50 56 -50 61 0 4 -15 22 -32 40 -42 42 -142 243
-164 327 -25 99 -26 105 -29 265 -3 132 6 223 28 300 2 6 12 38 21 72 10 35
22 61 25 59 14 -9 9 33 -5 44 -7 7 -12 16 -9 20 8 12 -36 40 -62 40 -47 0 -71
-21 -93 -81 -12 -33 -23 -67 -25 -77 -1 -9 -8 -35 -13 -57 -16 -60 -22 -93
-29 -167 -4 -45 -10 -65 -17 -61 -6 3 -5 0 2 -8 6 -7 12 -27 12 -43 0 -24 -3
-27 -10 -16 -6 9 -10 10 -10 3 0 -6 5 -15 10 -18 8 -5 7 -11 -1 -21 -6 -8 -7
-14 -2 -14 5 0 10 -17 11 -37 3 -43 9 -90 18 -148 11 -74 68 -259 86 -279 4
-6 8 -18 8 -29 0 -10 4 -16 8 -13 5 3 26 -29 48 -71 21 -41 56 -92 76 -112 21
-20 38 -41 38 -47 0 -16 161 -162 219 -199 26 -16 62 -41 80 -55 18 -14 36
-25 39 -26 4 0 30 -11 57 -24 28 -13 55 -25 60 -25 6 -1 24 -7 40 -14 17 -7
42 -15 57 -18 15 -3 26 -9 23 -13 -2 -4 37 -15 88 -25 113 -24 351 -28 452
-10 119 22 126 24 138 33 7 5 43 19 82 31 38 13 83 30 100 39 16 9 33 16 36
17 13 1 79 40 79 47 0 4 17 16 38 27 48 24 123 87 115 95 -4 3 0 6 9 6 8 0 40
26 71 59 31 32 60 56 64 52 4 -3 5 -2 1 3 -4 5 8 27 27 49 19 22 43 58 54 79
11 22 30 53 42 69 27 35 75 151 85 206 9 47 9 253 0 313 -6 38 -33 103 -71
172 -5 10 -15 18 -22 18 -6 0 -13 4 -15 9 -6 16 -109 81 -130 81 -10 0 -17 4
-14 9 11 17 -64 24 -309 25 -250 2 -301 -2 -327 -23 -7 -6 -36 -28 -64 -50
-43 -33 -53 -47 -67 -95 -19 -67 -15 -142 9 -188 10 -18 17 -36 16 -40 -1 -4
10 -15 26 -25 15 -10 29 -20 32 -24 3 -3 21 -15 40 -25 30 -16 63 -19 221 -22
l187 -4 -2 -26 c-3 -43 -71 -148 -144 -223 -66 -69 -95 -89 -182 -131 -25 -11
-47 -24 -50 -27 -9 -12 -63 -30 -130 -44 -77 -15 -233 -14 -299 3 -86 21 -121
33 -121 41 0 6 -29 20 -50 24 -12 2 -58 30 -92 57 -21 16 -38 27 -38 23 0 -4
-12 8 -27 26 -16 18 -40 47 -55 63 -16 17 -28 34 -28 39 0 4 -4 5 -10 2 -5 -3
-10 -1 -10 5 0 6 -11 27 -24 48 -38 61 -85 204 -89 270 0 6 -5 12 -10 12 -5 0
-3 8 4 17 10 11 10 14 2 9 -10 -5 -13 9 -13 59 0 36 4 64 8 61 5 -3 9 1 9 9 0
8 -4 12 -9 9 -5 -4 -5 2 0 12 6 11 16 46 22 79 17 84 72 202 117 254 21 24 44
53 52 65 7 12 42 42 77 65 35 24 64 46 64 50 0 19 183 84 274 97 65 9 184 4
254 -11 80 -16 222 -72 222 -86 0 -5 14 -16 30 -24 40 -20 66 -42 104 -83 63
-69 159 -95 257 -72 55 14 95 47 146 123 29 41 31 51 29 126 -1 44 -5 83 -9
87 -4 4 -7 1 -7 -7 0 -8 -9 4 -20 26 -23 46 -68 94 -159 167 -72 59 -100 76
-191 119 -35 17 -67 34 -70 38 -13 20 -203 72 -320 87 -44 6 -248 12 -253 8z"/>
    </g>
</svg>
