<?xml version="1.0" encoding="UTF-8"?>
<svg width="37px" height="30px" viewBox="0 0 37 30" version="1.1" xmlns="http://www.w3.org/2000/svg"
     xmlns:xlink="http://www.w3.org/1999/xlink">
    <!-- Generator: Sketch 47.1 (45422) - http://www.bohemiancoding.com/sketch -->
    <title>contact</title>
    <desc>Created with Sketch.</desc>
    <defs></defs>
    <g id="Page-1" stroke="none" stroke-width="1" fill="none" fill-rule="evenodd">
        <g id="home" transform="translate(-378.000000, -735.000000)">
            <g id="contact" transform="translate(378.000000, 735.000000)">
                <path d="M14.5882353,4.487 C6.53104072,4.487 0,9.44257143 0,15.5584286 C0,18.5565714 1.57328507,21.2823571 4.12734842,23.2752143 C3.97922172,25.3079286 3.48322172,27.7945714 2.04684163,29.1342143 C4.90613575,29.1342143 7.82827149,27.3672143 9.67536652,25.9855 C11.2104977,26.4017857 12.8623348,26.6298571 14.5882353,26.6298571 C22.6454299,26.6298571 29.1764706,21.6765 29.1764706,15.5584286 C29.1764706,9.44257143 22.6454299,4.487 14.5882353,4.487 Z"
                      id="Shape" fill="#9B9B9B" class="shadable-fill" fill-rule="nonzero"></path>
                <path d="M33.9793665,16.6367857 C35.2070226,15.0181429 35.9095023,13.136 35.9095023,11.1298571 C35.9095023,5.014 29.3784615,0.0584285714 21.321267,0.0584285714 C17.7752036,0.0584285714 14.5253937,1.01942857 11.9982624,2.61371429 C13.1877647,2.39228571 14.4311312,2.27271429 15.7104072,2.27271429 C24.3870407,2.27271429 31.4208145,7.7265 31.4208145,14.4512857 C31.4208145,17.1017857 30.3323077,19.5574286 28.4762353,21.5525 C30.3188416,22.9342143 33.2454661,24.7056429 36.1047602,24.7056429 C34.0713846,22.8013571 33.9255023,18.5809286 33.9793665,16.6367857 Z"
                      id="Shape" fill="#9B9B9B" class="shadable-fill" fill-rule="nonzero"></path>
                <path d="M8.28808594,17.1269531 C8.69433797,17.1269531 9.03710798,16.9873061 9.31640625,16.7080078 C9.59570452,16.4287095 9.73535156,16.0859395 9.73535156,15.6796875 C9.73535156,15.2734355 9.59570452,14.9306655 9.31640625,14.6513672 C9.03710798,14.3720689 8.69433797,14.2324219 8.28808594,14.2324219 C7.88183391,14.2324219 7.5390639,14.3720689 7.25976562,14.6513672 C6.98046735,14.9306655 6.84082031,15.2734355 6.84082031,15.6796875 C6.84082031,16.0859395 6.98046735,16.4287095 7.25976562,16.7080078 C7.5390639,16.9873061 7.88183391,17.1269531 8.28808594,17.1269531 Z M14.5976562,17.1269531 C15.0039083,17.1269531 15.3466783,16.9873061 15.6259766,16.7080078 C15.9052748,16.4287095 16.0449219,16.0859395 16.0449219,15.6796875 C16.0449219,15.2734355 15.9052748,14.9306655 15.6259766,14.6513672 C15.3466783,14.3720689 15.0039083,14.2324219 14.5976562,14.2324219 C14.1914042,14.2324219 13.8486342,14.3720689 13.5693359,14.6513672 C13.2900377,14.9306655 13.1503906,15.2734355 13.1503906,15.6796875 C13.1503906,16.0859395 13.2900377,16.4287095 13.5693359,16.7080078 C13.8486342,16.9873061 14.1914042,17.1269531 14.5976562,17.1269531 Z M20.9072266,17.1269531 C21.3134786,17.1269531 21.6562486,16.9873061 21.9355469,16.7080078 C22.2148451,16.4287095 22.3544922,16.0859395 22.3544922,15.6796875 C22.3544922,15.2734355 22.2148451,14.9306655 21.9355469,14.6513672 C21.6562486,14.3720689 21.3134786,14.2324219 20.9072266,14.2324219 C20.5009745,14.2324219 20.1582045,14.3720689 19.8789062,14.6513672 C19.599608,14.9306655 19.4599609,15.2734355 19.4599609,15.6796875 C19.4599609,16.0859395 19.599608,16.4287095 19.8789062,16.7080078 C20.1582045,16.9873061 20.5009745,17.1269531 20.9072266,17.1269531 Z"
                      id="…" fill="#0F0F0F"></path>
            </g>
        </g>
    </g>
</svg>
