<?xml version="1.0" encoding="UTF-8"?>
<svg width="35px" height="31px" viewBox="0 0 35 31" version="1.1" xmlns="http://www.w3.org/2000/svg"
     xmlns:xlink="http://www.w3.org/1999/xlink">
    <!-- Generator: Sketch 47.1 (45422) - http://www.bohemiancoding.com/sketch -->
    <title>home</title>
    <desc>Created with Sketch.</desc>
    <defs></defs>
    <g id="Page-1" stroke="none" stroke-width="1" fill="none" fill-rule="evenodd">
        <g id="about-me" transform="translate(-50.000000, -735.000000)" fill-rule="nonzero" fill="#9B9B9B"
           class="shadable-fill">
            <g id="home"
               transform="translate(67.500000, 750.500000) rotate(-360.000000) translate(-67.500000, -750.500000) translate(50.000000, 735.000000)">
                <path d="M33.9787932,14.0610903 L28.7412908,9.18426574 L28.7412908,3.55071496 C28.7412908,2.53208999 27.854794,1.70657636 26.7592296,1.70657636 C25.6661765,1.70657636 24.7796797,2.53208999 24.7796797,3.55071496 L24.7796797,5.49553387 L20.8799449,1.86422225 C18.9518771,0.0699041746 15.5996105,0.0730869717 13.6759375,1.86747 L0.580228386,14.0610903 C-0.192840356,14.7823511 -0.192840356,15.9493983 0.580228386,16.6695549 C1.35364592,17.3906208 2.60944664,17.3906208 3.38258514,16.6695549 L16.4770386,4.4756098 C16.9036146,4.08048828 17.6554767,4.08048828 18.0798204,4.47444061 L31.1765062,16.6695549 C31.5648543,17.0301203 32.0711648,17.2094612 32.5773358,17.2094612 C33.0845531,17.2094612 33.5917007,17.0299254 33.9788629,16.6695549 C34.7522107,15.9494633 34.7522107,14.782416 33.9787932,14.0610903 Z"
                      id="Shape"></path>
                <path d="M17.9675782,7.97623187 C17.5871129,7.62216194 16.9710716,7.62216194 16.5917224,7.97623187 L5.07270511,18.6988153 C4.89084351,18.8680882 4.78773977,19.0991982 4.78773977,19.3403763 L4.78773977,27.1610283 C4.78773977,28.9962031 6.38577792,30.4841282 8.35660793,30.4841282 L14.0596816,30.4841282 L14.0596816,22.2601704 L20.4983634,22.2601704 L20.4983634,30.4841282 L26.2015068,30.4841282 C28.172267,30.4841282 29.7703051,28.9962031 29.7703051,27.1610932 L29.7703051,19.3403763 C29.7703051,19.0991982 29.6681083,18.8680882 29.4853398,18.6988153 L17.9675782,7.97623187 Z"
                      id="Shape"></path>
            </g>
        </g>
    </g>
</svg>
