<?xml version="1.0" encoding="UTF-8"?>
<svg width="24px" height="15px" viewBox="0 0 24 15" version="1.1" xmlns="http://www.w3.org/2000/svg"
     xmlns:xlink="http://www.w3.org/1999/xlink">
    <!-- Generator: Sketch 48.2 (47327) - http://www.bohemiancoding.com/sketch -->
    <title>white menu</title>
    <desc>Created with Sketch.</desc>
    <defs></defs>
    <g id="Artboard" stroke="none" stroke-width="1" fill="none" fill-rule="evenodd"
       transform="translate(-280.000000, -532.000000)">
        <g id="white-menu" transform="translate(280.000000, 532.000000)" fill="#FFFFFF" class="shadable-fill">
            <path d="M22.6197333,11.9365333 L1.380264,11.9365333 C0.617758667,11.9365333 5.2e-05,12.55424 5.2e-05,13.3167467 C5.2e-05,14.0792533 0.617758667,14.69696 1.380264,14.69696 L22.6197333,14.69696 C23.3812,14.69696 23.9999467,14.0792533 23.9999467,13.3167467 C23.9999467,12.55424 23.38224,11.9365333 22.6197333,11.9365333 Z"
                  id="Fill-1"></path>
            <path d="M22.9264458,6.0864 L6.4068332,6.0864 C5.81377259,6.0864 5.33333333,6.70410667 5.33333333,7.46661333 C5.33333333,8.22912 5.81377259,8.84682667 6.4068332,8.84682667 L22.9264458,8.84682667 C23.5195074,8.84682667 23.9999467,8.22912 23.9999467,7.46661333 C23.9999467,6.70410667 23.5195074,6.0864 22.9264458,6.0864 Z"
                  id="Fill-2"></path>
            <path d="M1.38026667,2.9968 L22.6197333,2.9968 C23.3812,2.9968 23.9999467,2.37909333 23.9999467,1.61658667 C23.9999467,0.85408 23.38224,0.236373333 22.6197333,0.236373333 L1.38026667,0.236373333 C0.61776,0.236373333 5.33333333e-05,0.85408 5.33333333e-05,1.61658667 C5.33333333e-05,2.37805333 0.61776,2.9968 1.38026667,2.9968 Z"
                  id="Fill-3"></path>
        </g>
    </g>
</svg>
