<?xml version="1.0" encoding="UTF-8"?>
<svg width="31px" height="34px" viewBox="0 0 31 34" version="1.1" xmlns="http://www.w3.org/2000/svg"
     xmlns:xlink="http://www.w3.org/1999/xlink">
    <!-- Generator: Sketch 47.1 (45422) - http://www.bohemiancoding.com/sketch -->
    <title>skills</title>
    <desc>Created with Sketch.</desc>
    <defs></defs>
    <g id="Page-1" stroke="none" stroke-width="1" fill="none" fill-rule="evenodd">
        <g id="home" transform="translate(-255.000000, -733.000000)">
            <g id="skills" transform="translate(255.000000, 733.000000)">
                <path d="M15.4741335,0.713809543 L18.9516319,0.713809543 C18.9516319,0.713809543 19.6706901,1.88598158 20.5382577,1.84613037 C20.8815619,1.8303609 20.582824,1.84829791 21.809394,1.84613037 C23.035964,1.84396283 22.4664928,2.39592413 22.7558628,2.35664989 C23.4366873,2.26424619 23.0384106,2.37132024 23.025463,2.65860211 C23.0125154,2.94588399 23.6542516,3.72522797 23.9336141,3.67413443 C24.9492207,3.48838677 24.175657,5.44515482 25.3421891,4.81287977 C25.7641472,4.58417319 25.5147846,6.37985938 26.4391751,5.58841055 C26.825056,5.25802531 26.4261365,7.75103396 27.2982246,6.66497577 C27.6625193,6.21129987 27.7227709,8.96617092 28.4241209,7.67867251 C28.6884675,7.19339995 28.0358792,11.0391189 28.4241209,9.58606522 C28.6375059,8.78743898 27.7817948,14.0885117 28.4241209,11.7134976 C28.7882347,10.3671791 28.4580326,10.6072855 28.4241209,11.0859601 C28.3902092,11.5646347 28.6992278,11.9654304 28.6992278,11.9654304 C28.6992278,11.9654304 29.980454,15.3600984 29.6514327,16.6307757 C29.5292935,17.1024763 29.1560382,16.1244093 29.4008766,18.0946474 C29.4299161,18.328331 28.3676333,18.8376376 28.4241209,19.2207732 C28.4360779,19.3018739 27.1118313,19.7105036 27.2982246,20.3677786 C27.3448648,20.5322451 26.4810579,21.4272054 26.8386423,22.1927999 C26.9503347,22.4319355 26.2735751,23.0392653 26.8386423,23.8549138 C27.0035153,24.0929004 25.1297754,24.9376192 25.6478125,25.4819223 C25.8039918,25.6460204 22.8031074,26.9203523 23.4949115,27.2757388 C23.8557642,27.4611123 22.0737924,26.5775298 23.9336141,26.7665959 C24.4447711,26.8185592 23.5588961,28.3068209 23.4949115,28.4610618 C23.4309269,28.6153028 22.7558628,28.9945261 22.7558628,28.9945261 C22.7558628,28.9945261 22.0737169,29.9327347 21.3557773,29.9327347 C20.6378377,29.9327347 21.6765442,30.2622206 20.7989095,31.0893769 C20.1548148,31.6964256 20.5197497,31.8895346 19.8629953,32.3534003 C18.4605967,33.3439146 18.072345,32.3657151 17.9535376,32.3534003 C17.901624,32.3480193 16.7507416,32.9386689 16.5240829,32.0548898 C16.2974242,31.1711107 15.608945,30.8109698 15.4741335,30.2622206 C15.2243348,29.2454169 15.037037,28.1944444 15.037037,28.1944444 L15.4741335,0.713809543 Z"
                      id="Rectangle-4" fill="#9B9B9B" class="shadable-fill"></path>
                <path d="M29.2768454,12.6386656 C28.8456399,11.9684586 28.6049671,10.5155079 28.6584499,9.63136958 C28.7838004,7.56615168 27.6862877,5.51541872 25.9904358,4.64520821 C25.6634104,4.47696008 25.3692548,4.39227891 25.1096401,4.31762577 C24.6633926,4.18893266 24.4789882,4.13544981 24.310183,3.78502574 C23.5948499,2.29920536 22.8059778,1.77273357 21.2950874,1.77273357 C21.0739135,1.77273357 20.8337978,1.78276161 20.5596982,1.80003211 C20.4031495,1.80003211 20.159134,1.53874611 19.9234752,1.28693103 C19.5106544,0.845140424 18.9591126,0.255157755 18.0844452,0.154877415 L17.8031031,0.127021764 C16.866039,0.127021764 15.9596162,0.406135378 15.3167078,0.892495029 C15.1674015,1.00503186 14.9902395,1.1014124 14.755695,0.895837707 C14.2632071,0.462403792 13.4726637,0 12.7333748,0 C12.478217,0 12.2498007,0.0551541872 12.0486829,0.166576788 C11.181258,0.338167592 10.6252592,0.888595238 10.2146669,1.29473062 C9.94168152,1.56493042 9.70602272,1.79836077 9.50211936,1.79836077 L9.50156225,1.79836077 C9.23971914,1.78164738 8.99960343,1.77161935 8.77842957,1.77161935 C7.26753911,1.77161935 6.4786671,2.29809113 5.76277689,3.78391151 C5.73993526,3.83182323 5.71486517,3.86246444 5.69090932,3.89979101 L6.12322901,3.89979101 C7.65918955,3.89979101 8.90879402,5.14939548 8.90879402,6.68535602 C8.90879402,6.99343951 8.65920739,7.24246903 8.35168101,7.24246903 C8.04415464,7.24246903 7.79456801,6.99343951 7.79456801,6.68535602 C7.79456801,5.76389112 7.04469391,5.01401702 6.12322901,5.01401702 L3.49309852,5.01401702 C2.13987104,6.0157062 1.30587288,7.81685253 1.41562414,9.63081247 C1.46910699,10.5155079 1.22843417,11.9679015 0.797228706,12.6381085 C-0.265742902,14.292177 -0.265742902,16.6014103 0.797228706,18.2549217 C0.961577041,18.5100795 1.20224986,18.8070207 1.48080636,19.1513166 C1.74654926,19.4794561 2.10533003,19.9251465 2.37998674,20.3413099 L3.43905856,18.838219 C4.23127325,17.5200897 5.65971099,16.7133901 7.23745501,16.7133901 C9.08094193,16.7133901 10.580133,15.214199 10.580133,13.370712 C10.580133,13.0626286 10.8297196,12.813599 11.137246,12.813599 C11.4447724,12.813599 11.694359,13.0626286 11.694359,13.370712 C11.694359,15.8281375 9.69488046,17.8276161 7.23745501,17.8276161 C6.05358988,17.8276161 4.98226158,18.4331979 4.37166573,19.4465864 L2.77720831,21.7101366 C2.83960497,23.6773026 4.04519751,25.80436 5.61235638,26.6088312 C5.91598297,26.7648228 5.96723736,26.9224858 6.08200264,27.3999317 C6.09481624,27.4517432 6.10874407,27.5080116 6.12267189,27.5648371 L6.12267189,27.2985371 C6.12267189,25.148638 7.87200672,23.3987461 10.0224629,23.3987461 C10.3299893,23.3987461 10.5795759,23.6477756 10.5795759,23.9558591 C10.5795759,24.2639426 10.3299893,24.5129721 10.0224629,24.5129721 C8.48650236,24.5129721 7.2368979,25.7625766 7.2368979,27.2985371 L7.2368979,29.3509414 C7.53439624,29.5565161 7.83913705,29.6735098 8.09708037,29.7721188 C8.61853814,29.9698939 8.83414087,30.0523467 8.91325092,30.6239446 C9.13052499,32.198346 10.0631322,33.1387527 11.4080029,33.1387527 C12.6057959,33.1387527 13.9016407,32.3292675 14.7088975,31.0763204 C14.8075065,30.9236714 14.9712977,30.9064009 15.0364799,30.9064009 C15.1016621,30.9064009 15.2654534,30.9231143 15.3640624,31.0763204 C16.1713191,32.3292675 17.467164,33.1387527 18.6649569,33.1387527 C19.7028584,33.1387527 20.9034369,32.4780167 21.1597089,30.6239446 C21.238819,30.0523467 21.4544217,29.9698939 21.9758795,29.7721188 C22.5006799,29.5721153 23.2199128,29.2985728 23.6789739,28.3453524 C23.8488934,27.9921428 23.9280034,27.6634461 23.9915143,27.3999317 C24.1068367,26.9230429 24.157534,26.7648228 24.4611606,26.6088312 C26.1480987,25.7425205 27.4183164,23.3447061 27.2924089,21.2627748 C27.2639961,20.7925715 28.0963229,19.7652551 28.5932677,19.1518737 C28.8718242,18.8075778 29.112497,18.5106366 29.2768454,18.2554788 C30.339817,16.6019675 30.339817,14.292177 29.2768454,12.6386656 Z M12.3567664,22.3602874 C12.5745976,22.5781186 12.5745976,22.930214 12.3567664,23.1480452 C12.2481293,23.2566823 12.1055084,23.3112793 11.9628875,23.3112793 C11.8202666,23.3112793 11.6776456,23.2566823 11.5690086,23.1480452 C10.8564611,22.4354977 10.4636964,21.4884056 10.4636964,20.4822595 C10.4636964,19.4761134 10.8564611,18.5290213 11.5690086,17.8164738 C11.7868398,17.5986426 12.1389352,17.5986426 12.3567664,17.8164738 C12.5745976,18.034305 12.5745976,18.3864004 12.3567664,18.6042316 C11.8548076,19.1061904 11.5779224,19.7736118 11.5779224,20.4822595 C11.5779224,21.1909073 11.8548076,21.8577715 12.3567664,22.3602874 Z M12.3612233,8.39736428 C10.919972,8.1455492 9.53888882,9.11158315 9.2854024,10.5539487 C8.9639482,12.3818365 7.36893368,13.6726673 5.57391559,13.6726673 C5.35775574,13.6726673 5.13936744,13.6542826 4.91986492,13.6152847 C4.61679545,13.5618018 4.41400631,13.2732173 4.46748916,12.9701478 C4.52097201,12.6670783 4.80732809,12.4670748 5.11262602,12.5172149 C6.55499158,12.7701442 7.93440337,11.8041103 8.1884469,10.3611876 C8.54778479,8.31379733 10.5043657,6.94385646 12.5539844,7.29929455 C12.8570539,7.3527774 13.059843,7.64136194 13.0063601,7.94443141 C12.9528773,8.24750088 12.6648499,8.44694734 12.3612233,8.39736428 Z M27.2935231,7.51155461 C27.6010495,7.51155461 27.8506361,7.76114123 27.8506361,8.06866761 C27.8506361,8.37619399 27.6010495,8.62578061 27.2935231,8.62578061 C26.9859967,8.62578061 26.7364101,8.37619399 26.7364101,8.06866761 C26.7364101,7.76058412 26.9859967,7.51155461 27.2935231,7.51155461 Z M17.265489,20.8822667 C16.9579627,20.8822667 16.708376,20.63268 16.708376,20.3251537 C16.708376,20.0176273 16.9579627,19.7680407 17.265489,19.7680407 C17.5730154,19.7680407 17.822602,20.0176273 17.822602,20.3251537 C17.822602,20.63268 17.5735725,20.8822667 17.265489,20.8822667 Z M17.822602,24.7820577 C17.822602,25.089584 17.5730154,25.3391707 17.265489,25.3391707 C16.9579627,25.3391707 16.708376,25.089584 16.708376,24.7820577 C16.708376,24.4745313 16.9579627,24.2249447 17.265489,24.2249447 C17.5730154,24.2249447 17.822602,24.4739742 17.822602,24.7820577 Z M23.9508451,16.4253626 C23.6433187,16.4253626 23.3937321,16.175776 23.3937321,15.8682496 C23.3937321,15.5607233 23.6433187,15.3111366 23.9508451,15.3111366 C24.2583714,15.3111366 24.5079581,15.5607233 24.5079581,15.8682496 C24.5079581,16.175776 24.2589286,16.4253626 23.9508451,16.4253626 Z M24.5079581,18.0967016 C24.5079581,18.404228 24.2583714,18.6538146 23.9508451,18.6538146 C23.6433187,18.6538146 23.3937321,18.404228 23.3937321,18.0967016 C23.3937321,17.7891753 23.6433187,17.5395886 23.9508451,17.5395886 C24.2583714,17.5395886 24.5079581,17.7886182 24.5079581,18.0967016 Z M23.9508451,14.1969106 C23.6433187,14.1969106 23.3937321,13.947324 23.3937321,13.6397976 C23.3937321,13.3322713 23.6433187,13.0826846 23.9508451,13.0826846 C24.2583714,13.0826846 24.5079581,13.3322713 24.5079581,13.6397976 C24.5079581,13.947324 24.2589286,14.1969106 23.9508451,14.1969106 Z M22.8366191,13.0826846 C22.5290927,13.0826846 22.2795061,12.833098 22.2795061,12.5255716 C22.2795061,12.2180452 22.5290927,11.9684586 22.8366191,11.9684586 C23.1441454,11.9684586 23.3937321,12.2180452 23.3937321,12.5255716 C23.3937321,12.833098 23.1447026,13.0826846 22.8366191,13.0826846 Z M23.9508451,11.9684586 C23.6433187,11.9684586 23.3937321,11.718872 23.3937321,11.4113456 C23.3937321,11.1038192 23.6433187,10.8542326 23.9508451,10.8542326 C24.2583714,10.8542326 24.5079581,11.1038192 24.5079581,11.4113456 C24.5079581,11.718872 24.2589286,11.9684586 23.9508451,11.9684586 Z M22.8366191,7.51155461 C23.1441454,7.51155461 23.3937321,7.76114123 23.3937321,8.06866761 C23.3937321,8.37619399 23.1441454,8.62578061 22.8366191,8.62578061 C22.5290927,8.62578061 22.2795061,8.37619399 22.2795061,8.06866761 C22.2795061,7.76058412 22.5290927,7.51155461 22.8366191,7.51155461 Z M22.2795061,5.8402156 C22.2795061,5.53268922 22.5290927,5.2831026 22.8366191,5.2831026 C23.1441454,5.2831026 23.3937321,5.53268922 23.3937321,5.8402156 C23.3937321,6.14774198 23.1441454,6.3973286 22.8366191,6.3973286 C22.5290927,6.3973286 22.2795061,6.14774198 22.2795061,5.8402156 Z M21.7223931,7.51155461 C21.4148667,7.51155461 21.1652801,7.26196798 21.1652801,6.9544416 C21.1652801,6.64691523 21.4148667,6.3973286 21.7223931,6.3973286 C22.0299194,6.3973286 22.2795061,6.64691523 22.2795061,6.9544416 C22.2795061,7.26196798 22.0304766,7.51155461 21.7223931,7.51155461 Z M21.7223931,10.8542326 C22.0299194,10.8542326 22.2795061,11.1038192 22.2795061,11.4113456 C22.2795061,11.718872 22.0299194,11.9684586 21.7223931,11.9684586 C21.4148667,11.9684586 21.1652801,11.718872 21.1652801,11.4113456 C21.1652801,11.1032621 21.4148667,10.8542326 21.7223931,10.8542326 Z M19.4939411,11.9684586 C19.1864147,11.9684586 18.9368281,11.718872 18.9368281,11.4113456 C18.9368281,11.1038192 19.1864147,10.8542326 19.4939411,10.8542326 C19.8014674,10.8542326 20.0510541,11.1038192 20.0510541,11.4113456 C20.0510541,11.718872 19.8020245,11.9684586 19.4939411,11.9684586 Z M20.6081671,14.1969106 C20.9156934,14.1969106 21.1652801,14.4464973 21.1652801,14.7540236 C21.1652801,15.06155 20.9156934,15.3111366 20.6081671,15.3111366 C20.3006407,15.3111366 20.0510541,15.06155 20.0510541,14.7540236 C20.0510541,14.4459401 20.3006407,14.1969106 20.6081671,14.1969106 Z M19.4939411,15.3111366 C19.8014674,15.3111366 20.0510541,15.5607233 20.0510541,15.8682496 C20.0510541,16.175776 19.8014674,16.4253626 19.4939411,16.4253626 C19.1864147,16.4253626 18.9368281,16.175776 18.9368281,15.8682496 C18.9368281,15.5601661 19.1864147,15.3111366 19.4939411,15.3111366 Z M18.379715,14.1969106 C18.6872414,14.1969106 18.9368281,14.4464973 18.9368281,14.7540236 C18.9368281,15.06155 18.6872414,15.3111366 18.379715,15.3111366 C18.0721887,15.3111366 17.822602,15.06155 17.822602,14.7540236 C17.822602,14.4459401 18.0721887,14.1969106 18.379715,14.1969106 Z M17.822602,12.5255716 C17.822602,12.2180452 18.0721887,11.9684586 18.379715,11.9684586 C18.6872414,11.9684586 18.9368281,12.2180452 18.9368281,12.5255716 C18.9368281,12.833098 18.6872414,13.0826846 18.379715,13.0826846 C18.0721887,13.0826846 17.822602,12.833098 17.822602,12.5255716 Z M18.379715,16.4253626 C18.6872414,16.4253626 18.9368281,16.6749493 18.9368281,16.9824756 C18.9368281,17.290002 18.6872414,17.5395886 18.379715,17.5395886 C18.0721887,17.5395886 17.822602,17.290002 17.822602,16.9824756 C17.822602,16.6743921 18.0721887,16.4253626 18.379715,16.4253626 Z M19.4939411,19.7680407 C19.8014674,19.7680407 20.0510541,20.0176273 20.0510541,20.3251537 C20.0510541,20.63268 19.8014674,20.8822667 19.4939411,20.8822667 C19.1864147,20.8822667 18.9368281,20.63268 18.9368281,20.3251537 C18.9368281,20.0170702 19.1864147,19.7680407 19.4939411,19.7680407 Z M20.6081671,17.5395886 C20.3006407,17.5395886 20.0510541,17.290002 20.0510541,16.9824756 C20.0510541,16.6749493 20.3006407,16.4253626 20.6081671,16.4253626 C20.9156934,16.4253626 21.1652801,16.6749493 21.1652801,16.9824756 C21.1652801,17.290002 20.9162505,17.5395886 20.6081671,17.5395886 Z M21.1652801,23.6678317 C21.1652801,23.975358 20.9156934,24.2249447 20.6081671,24.2249447 C20.3006407,24.2249447 20.0510541,23.975358 20.0510541,23.6678317 C20.0510541,23.3603053 20.3006407,23.1107187 20.6081671,23.1107187 C20.9156934,23.1107187 21.1652801,23.3597482 21.1652801,23.6678317 Z M21.7223931,17.5395886 C22.0299194,17.5395886 22.2795061,17.7891753 22.2795061,18.0967016 C22.2795061,18.404228 22.0299194,18.6538146 21.7223931,18.6538146 C21.4148667,18.6538146 21.1652801,18.404228 21.1652801,18.0967016 C21.1652801,17.7886182 21.4148667,17.5395886 21.7223931,17.5395886 Z M20.6081671,8.62578061 C20.3006407,8.62578061 20.0510541,8.37619399 20.0510541,8.06866761 C20.0510541,7.76114123 20.3006407,7.51155461 20.6081671,7.51155461 C20.9156934,7.51155461 21.1652801,7.76114123 21.1652801,8.06866761 C21.1652801,8.37619399 20.9162505,8.62578061 20.6081671,8.62578061 Z M19.4939411,6.3973286 C19.8014674,6.3973286 20.0510541,6.64691523 20.0510541,6.9544416 C20.0510541,7.26196798 19.8014674,7.51155461 19.4939411,7.51155461 C19.1864147,7.51155461 18.9368281,7.26196798 18.9368281,6.9544416 C18.9368281,6.64635811 19.1864147,6.3973286 19.4939411,6.3973286 Z M18.9368281,4.7259896 C18.9368281,4.41846322 19.1864147,4.16887659 19.4939411,4.16887659 C19.8014674,4.16887659 20.0510541,4.41846322 20.0510541,4.7259896 C20.0510541,5.03351597 19.8014674,5.2831026 19.4939411,5.2831026 C19.1864147,5.2831026 18.9368281,5.03351597 18.9368281,4.7259896 Z M19.4939411,8.62578061 C19.8014674,8.62578061 20.0510541,8.87536723 20.0510541,9.18289361 C20.0510541,9.49041999 19.8014674,9.74000661 19.4939411,9.74000661 C19.1864147,9.74000661 18.9368281,9.49041999 18.9368281,9.18289361 C18.9368281,8.87481012 19.1864147,8.62578061 19.4939411,8.62578061 Z M18.379715,8.62578061 C18.0721887,8.62578061 17.822602,8.37619399 17.822602,8.06866761 C17.822602,7.76114123 18.0721887,7.51155461 18.379715,7.51155461 C18.6872414,7.51155461 18.9368281,7.76114123 18.9368281,8.06866761 C18.9368281,8.37619399 18.6877985,8.62578061 18.379715,8.62578061 Z M17.265489,7.51155461 C16.9579627,7.51155461 16.708376,7.26196798 16.708376,6.9544416 C16.708376,6.64691523 16.9579627,6.3973286 17.265489,6.3973286 C17.5730154,6.3973286 17.822602,6.64691523 17.822602,6.9544416 C17.822602,7.26196798 17.5735725,7.51155461 17.265489,7.51155461 Z M17.265489,8.62578061 C17.5730154,8.62578061 17.822602,8.87536723 17.822602,9.18289361 C17.822602,9.49041999 17.5730154,9.74000661 17.265489,9.74000661 C16.9579627,9.74000661 16.708376,9.49041999 16.708376,9.18289361 C16.708376,8.87481012 16.9579627,8.62578061 17.265489,8.62578061 Z M17.265489,10.8542326 C17.5730154,10.8542326 17.822602,11.1038192 17.822602,11.4113456 C17.822602,11.718872 17.5730154,11.9684586 17.265489,11.9684586 C16.9579627,11.9684586 16.708376,11.718872 16.708376,11.4113456 C16.708376,11.1032621 16.9579627,10.8542326 17.265489,10.8542326 Z M17.265489,13.0826846 C17.5730154,13.0826846 17.822602,13.3322713 17.822602,13.6397976 C17.822602,13.947324 17.5730154,14.1969106 17.265489,14.1969106 C16.9579627,14.1969106 16.708376,13.947324 16.708376,13.6397976 C16.708376,13.3317141 16.9579627,13.0826846 17.265489,13.0826846 Z M17.265489,17.5395886 C17.5730154,17.5395886 17.822602,17.7891753 17.822602,18.0967016 C17.822602,18.404228 17.5730154,18.6538146 17.265489,18.6538146 C16.9579627,18.6538146 16.708376,18.404228 16.708376,18.0967016 C16.708376,17.7886182 16.9579627,17.5395886 17.265489,17.5395886 Z M18.379715,23.1107187 C18.6872414,23.1107187 18.9368281,23.3603053 18.9368281,23.6678317 C18.9368281,23.975358 18.6872414,24.2249447 18.379715,24.2249447 C18.0721887,24.2249447 17.822602,23.975358 17.822602,23.6678317 C17.822602,23.3597482 18.0721887,23.1107187 18.379715,23.1107187 Z M19.4939411,23.1107187 C19.1864147,23.1107187 18.9368281,22.861132 18.9368281,22.5536057 C18.9368281,22.2460793 19.1864147,21.9964927 19.4939411,21.9964927 C19.8014674,21.9964927 20.0510541,22.2460793 20.0510541,22.5536057 C20.0510541,22.861132 19.8020245,23.1107187 19.4939411,23.1107187 Z M20.0510541,29.2389617 C20.0510541,29.5464881 19.8014674,29.7960747 19.4939411,29.7960747 C19.1864147,29.7960747 18.9368281,29.5464881 18.9368281,29.2389617 C18.9368281,28.9314353 19.1864147,28.6818487 19.4939411,28.6818487 C19.8014674,28.6818487 20.0510541,28.9308782 20.0510541,29.2389617 Z M20.6081671,26.4533967 C20.3006407,26.4533967 20.0510541,26.20381 20.0510541,25.8962837 C20.0510541,25.5887573 20.3006407,25.3391707 20.6081671,25.3391707 C20.9156934,25.3391707 21.1652801,25.5887573 21.1652801,25.8962837 C21.1652801,26.20381 20.9162505,26.4533967 20.6081671,26.4533967 Z M21.1652801,28.1247357 C21.1652801,28.4322621 20.9156934,28.6818487 20.6081671,28.6818487 C20.3006407,28.6818487 20.0510541,28.4322621 20.0510541,28.1247357 C20.0510541,27.8172093 20.3006407,27.5676227 20.6081671,27.5676227 C20.9156934,27.5676227 21.1652801,27.8166522 21.1652801,28.1247357 Z M21.7223931,26.4533967 C22.0299194,26.4533967 22.2795061,26.7029833 22.2795061,27.0105097 C22.2795061,27.3180361 22.0299194,27.5676227 21.7223931,27.5676227 C21.4148667,27.5676227 21.1652801,27.3180361 21.1652801,27.0105097 C21.1652801,26.7024262 21.4148667,26.4533967 21.7223931,26.4533967 Z M21.7223931,20.8822667 C21.4148667,20.8822667 21.1652801,20.63268 21.1652801,20.3251537 C21.1652801,20.0176273 21.4148667,19.7680407 21.7223931,19.7680407 C22.0299194,19.7680407 22.2795061,20.0176273 22.2795061,20.3251537 C22.2795061,20.63268 22.0304766,20.8822667 21.7223931,20.8822667 Z M22.8366191,23.1107187 C23.1441454,23.1107187 23.3937321,23.3603053 23.3937321,23.6678317 C23.3937321,23.975358 23.1441454,24.2249447 22.8366191,24.2249447 C22.5290927,24.2249447 22.2795061,23.975358 22.2795061,23.6678317 C22.2795061,23.3597482 22.5290927,23.1107187 22.8366191,23.1107187 Z M22.8366191,15.3111366 C22.5290927,15.3111366 22.2795061,15.06155 22.2795061,14.7540236 C22.2795061,14.4464973 22.5290927,14.1969106 22.8366191,14.1969106 C23.1441454,14.1969106 23.3937321,14.4464973 23.3937321,14.7540236 C23.3937321,15.06155 23.1447026,15.3111366 22.8366191,15.3111366 Z M23.9508451,20.8822667 C23.6433187,20.8822667 23.3937321,20.63268 23.3937321,20.3251537 C23.3937321,20.0176273 23.6433187,19.7680407 23.9508451,19.7680407 C24.2583714,19.7680407 24.5079581,20.0176273 24.5079581,20.3251537 C24.5079581,20.63268 24.2589286,20.8822667 23.9508451,20.8822667 Z M24.5079581,22.5536057 C24.5079581,22.861132 24.2583714,23.1107187 23.9508451,23.1107187 C23.6433187,23.1107187 23.3937321,22.861132 23.3937321,22.5536057 C23.3937321,22.2460793 23.6433187,21.9964927 23.9508451,21.9964927 C24.2583714,21.9964927 24.5079581,22.2455222 24.5079581,22.5536057 Z M25.0650711,20.8822667 C25.3725975,20.8822667 25.6221841,21.1318533 25.6221841,21.4393797 C25.6221841,21.746906 25.3725975,21.9964927 25.0650711,21.9964927 C24.7575447,21.9964927 24.5079581,21.746906 24.5079581,21.4393797 C24.5079581,21.1312962 24.7575447,20.8822667 25.0650711,20.8822667 Z M25.0650711,13.0826846 C24.7575447,13.0826846 24.5079581,12.833098 24.5079581,12.5255716 C24.5079581,12.2180452 24.7575447,11.9684586 25.0650711,11.9684586 C25.3725975,11.9684586 25.6221841,12.2180452 25.6221841,12.5255716 C25.6221841,12.833098 25.3731546,13.0826846 25.0650711,13.0826846 Z M25.0650711,9.74000661 C25.3725975,9.74000661 25.6221841,9.98959324 25.6221841,10.2971196 C25.6221841,10.604646 25.3725975,10.8542326 25.0650711,10.8542326 C24.7575447,10.8542326 24.5079581,10.604646 24.5079581,10.2971196 C24.5079581,9.98903613 24.7575447,9.74000661 25.0650711,9.74000661 Z M24.5079581,8.06866761 C24.5079581,7.76114123 24.7575447,7.51155461 25.0650711,7.51155461 C25.3725975,7.51155461 25.6221841,7.76114123 25.6221841,8.06866761 C25.6221841,8.37619399 25.3725975,8.62578061 25.0650711,8.62578061 C24.7575447,8.62578061 24.5079581,8.37619399 24.5079581,8.06866761 Z M26.1792971,16.4253626 C25.8717707,16.4253626 25.6221841,16.175776 25.6221841,15.8682496 C25.6221841,15.5607233 25.8717707,15.3111366 26.1792971,15.3111366 C26.4868235,15.3111366 26.7364101,15.5607233 26.7364101,15.8682496 C26.7364101,16.175776 26.4873806,16.4253626 26.1792971,16.4253626 Z M26.7364101,18.0967016 C26.7364101,18.404228 26.4868235,18.6538146 26.1792971,18.6538146 C25.8717707,18.6538146 25.6221841,18.404228 25.6221841,18.0967016 C25.6221841,17.7891753 25.8717707,17.5395886 26.1792971,17.5395886 C26.4868235,17.5395886 26.7364101,17.7886182 26.7364101,18.0967016 Z M26.1792971,9.74000661 C25.8717707,9.74000661 25.6221841,9.49041999 25.6221841,9.18289361 C25.6221841,8.87536723 25.8717707,8.62578061 26.1792971,8.62578061 C26.4868235,8.62578061 26.7364101,8.87536723 26.7364101,9.18289361 C26.7364101,9.49041999 26.4873806,9.74000661 26.1792971,9.74000661 Z M27.2935231,13.0826846 C26.9859967,13.0826846 26.7364101,12.833098 26.7364101,12.5255716 C26.7364101,12.2180452 26.9859967,11.9684586 27.2935231,11.9684586 C27.6010495,11.9684586 27.8506361,12.2180452 27.8506361,12.5255716 C27.8506361,12.833098 27.6016066,13.0826846 27.2935231,13.0826846 Z M27.8506361,14.7540236 C27.8506361,15.06155 27.6010495,15.3111366 27.2935231,15.3111366 C26.9859967,15.3111366 26.7364101,15.06155 26.7364101,14.7540236 C26.7364101,14.4464973 26.9859967,14.1969106 27.2935231,14.1969106 C27.6010495,14.1969106 27.8506361,14.4459401 27.8506361,14.7540236 Z M27.2935231,10.8542326 C26.9859967,10.8542326 26.7364101,10.604646 26.7364101,10.2971196 C26.7364101,9.98959324 26.9859967,9.74000661 27.2935231,9.74000661 C27.6010495,9.74000661 27.8506361,9.98959324 27.8506361,10.2971196 C27.8506361,10.604646 27.6016066,10.8542326 27.2935231,10.8542326 Z M26.1792971,6.3973286 C26.4868235,6.3973286 26.7364101,6.64691523 26.7364101,6.9544416 C26.7364101,7.26196798 26.4868235,7.51155461 26.1792971,7.51155461 C25.8717707,7.51155461 25.6221841,7.26196798 25.6221841,6.9544416 C25.6221841,6.64635811 25.8717707,6.3973286 26.1792971,6.3973286 Z M25.0650711,5.2831026 C25.3725975,5.2831026 25.6221841,5.53268922 25.6221841,5.8402156 C25.6221841,6.14774198 25.3725975,6.3973286 25.0650711,6.3973286 C24.7575447,6.3973286 24.5079581,6.14774198 24.5079581,5.8402156 C24.5079581,5.53213211 24.7575447,5.2831026 25.0650711,5.2831026 Z M23.9508451,4.16887659 C24.2583714,4.16887659 24.5079581,4.41846322 24.5079581,4.7259896 C24.5079581,5.03351597 24.2583714,5.2831026 23.9508451,5.2831026 C23.6433187,5.2831026 23.3937321,5.03351597 23.3937321,4.7259896 C23.3937321,4.41790611 23.6433187,4.16887659 23.9508451,4.16887659 Z M22.8366191,3.05465059 C23.1441454,3.05465059 23.3937321,3.30423721 23.3937321,3.61176359 C23.3937321,3.91928997 23.1441454,4.16887659 22.8366191,4.16887659 C22.5290927,4.16887659 22.2795061,3.91928997 22.2795061,3.61176359 C22.2795061,3.3036801 22.5290927,3.05465059 22.8366191,3.05465059 Z M21.7223931,1.94042459 C22.0299194,1.94042459 22.2795061,2.19001121 22.2795061,2.49753759 C22.2795061,2.80506397 22.0299194,3.05465059 21.7223931,3.05465059 C21.4148667,3.05465059 21.1652801,2.80506397 21.1652801,2.49753759 C21.1652801,2.1894541 21.4148667,1.94042459 21.7223931,1.94042459 Z M20.6081671,3.05465059 C20.9156934,3.05465059 21.1652801,3.30423721 21.1652801,3.61176359 C21.1652801,3.91928997 20.9156934,4.16887659 20.6081671,4.16887659 C20.3006407,4.16887659 20.0510541,3.91928997 20.0510541,3.61176359 C20.0510541,3.3036801 20.3006407,3.05465059 20.6081671,3.05465059 Z M19.4939411,1.94042459 C19.8014674,1.94042459 20.0510541,2.19001121 20.0510541,2.49753759 C20.0510541,2.80506397 19.8014674,3.05465059 19.4939411,3.05465059 C19.1864147,3.05465059 18.9368281,2.80506397 18.9368281,2.49753759 C18.9368281,2.1894541 19.1864147,1.94042459 19.4939411,1.94042459 Z M18.379715,0.826198582 C18.6872414,0.826198582 18.9368281,1.07578521 18.9368281,1.38331158 C18.9368281,1.69083796 18.6872414,1.94042459 18.379715,1.94042459 C18.0721887,1.94042459 17.822602,1.69083796 17.822602,1.38331158 C17.822602,1.07522809 18.0721887,0.826198582 18.379715,0.826198582 Z M17.265489,1.94042459 C17.5730154,1.94042459 17.822602,2.19001121 17.822602,2.49753759 C17.822602,2.80506397 17.5730154,3.05465059 17.265489,3.05465059 C16.9579627,3.05465059 16.708376,2.80506397 16.708376,2.49753759 C16.708376,2.1894541 16.9579627,1.94042459 17.265489,1.94042459 Z M16.151263,0.826198582 C16.4587894,0.826198582 16.708376,1.07578521 16.708376,1.38331158 C16.708376,1.69083796 16.4587894,1.94042459 16.151263,1.94042459 C15.8437367,1.94042459 15.59415,1.69083796 15.59415,1.38331158 C15.59415,1.07522809 15.8437367,0.826198582 16.151263,0.826198582 Z M16.151263,3.05465059 C16.4587894,3.05465059 16.708376,3.30423721 16.708376,3.61176359 C16.708376,3.91928997 16.4587894,4.16887659 16.151263,4.16887659 C15.8437367,4.16887659 15.59415,3.91928997 15.59415,3.61176359 C15.59415,3.3036801 15.8437367,3.05465059 16.151263,3.05465059 Z M16.151263,5.2831026 C16.4587894,5.2831026 16.708376,5.53268922 16.708376,5.8402156 C16.708376,6.14774198 16.4587894,6.3973286 16.151263,6.3973286 C15.8437367,6.3973286 15.59415,6.14774198 15.59415,5.8402156 C15.59415,5.53213211 15.8437367,5.2831026 16.151263,5.2831026 Z M16.151263,9.74000661 C16.4587894,9.74000661 16.708376,9.98959324 16.708376,10.2971196 C16.708376,10.604646 16.4587894,10.8542326 16.151263,10.8542326 C15.8437367,10.8542326 15.59415,10.604646 15.59415,10.2971196 C15.59415,9.98903613 15.8437367,9.74000661 16.151263,9.74000661 Z M16.151263,14.1969106 C16.4587894,14.1969106 16.708376,14.4464973 16.708376,14.7540236 C16.708376,15.06155 16.4587894,15.3111366 16.151263,15.3111366 C15.8437367,15.3111366 15.59415,15.06155 15.59415,14.7540236 C15.59415,14.4459401 15.8437367,14.1969106 16.151263,14.1969106 Z M16.151263,16.4253626 C16.4587894,16.4253626 16.708376,16.6749493 16.708376,16.9824756 C16.708376,17.290002 16.4587894,17.5395886 16.151263,17.5395886 C15.8437367,17.5395886 15.59415,17.290002 15.59415,16.9824756 C15.59415,16.6743921 15.8437367,16.4253626 16.151263,16.4253626 Z M16.151263,18.6538146 C16.4587894,18.6538146 16.708376,18.9034013 16.708376,19.2109276 C16.708376,19.518454 16.4587894,19.7680407 16.151263,19.7680407 C15.8437367,19.7680407 15.59415,19.518454 15.59415,19.2109276 C15.59415,18.9028442 15.8437367,18.6538146 16.151263,18.6538146 Z M16.151263,20.8822667 C16.4587894,20.8822667 16.708376,21.1318533 16.708376,21.4393797 C16.708376,21.746906 16.4587894,21.9964927 16.151263,21.9964927 C15.8437367,21.9964927 15.59415,21.746906 15.59415,21.4393797 C15.59415,21.1312962 15.8437367,20.8822667 16.151263,20.8822667 Z M16.151263,23.1107187 C16.4587894,23.1107187 16.708376,23.3603053 16.708376,23.6678317 C16.708376,23.975358 16.4587894,24.2249447 16.151263,24.2249447 C15.8437367,24.2249447 15.59415,23.975358 15.59415,23.6678317 C15.59415,23.3597482 15.8437367,23.1107187 16.151263,23.1107187 Z M16.151263,25.3391707 C16.4587894,25.3391707 16.708376,25.5887573 16.708376,25.8962837 C16.708376,26.20381 16.4587894,26.4533967 16.151263,26.4533967 C15.8437367,26.4533967 15.59415,26.20381 15.59415,25.8962837 C15.59415,25.5882002 15.8437367,25.3391707 16.151263,25.3391707 Z M16.151263,27.5676227 C16.4587894,27.5676227 16.708376,27.8172093 16.708376,28.1247357 C16.708376,28.4322621 16.4587894,28.6818487 16.151263,28.6818487 C15.8437367,28.6818487 15.59415,28.4322621 15.59415,28.1247357 C15.59415,27.8166522 15.8437367,27.5676227 16.151263,27.5676227 Z M16.151263,30.9103007 C15.8437367,30.9103007 15.59415,30.6607141 15.59415,30.3531877 C15.59415,30.0456613 15.8437367,29.7960747 16.151263,29.7960747 C16.4587894,29.7960747 16.708376,30.0456613 16.708376,30.3531877 C16.708376,30.6607141 16.4593465,30.9103007 16.151263,30.9103007 Z M17.265489,32.0245267 C16.9579627,32.0245267 16.708376,31.7749401 16.708376,31.4674137 C16.708376,31.1598873 16.9579627,30.9103007 17.265489,30.9103007 C17.5730154,30.9103007 17.822602,31.1598873 17.822602,31.4674137 C17.822602,31.7749401 17.5735725,32.0245267 17.265489,32.0245267 Z M17.265489,29.7960747 C16.9579627,29.7960747 16.708376,29.5464881 16.708376,29.2389617 C16.708376,28.9314353 16.9579627,28.6818487 17.265489,28.6818487 C17.5730154,28.6818487 17.822602,28.9314353 17.822602,29.2389617 C17.822602,29.5464881 17.5735725,29.7960747 17.265489,29.7960747 Z M18.379715,28.6818487 C18.0721887,28.6818487 17.822602,28.4322621 17.822602,28.1247357 C17.822602,27.8172093 18.0721887,27.5676227 18.379715,27.5676227 C18.6872414,27.5676227 18.9368281,27.8172093 18.9368281,28.1247357 C18.9368281,28.4322621 18.6877985,28.6818487 18.379715,28.6818487 Z M19.4939411,32.0245267 C19.1864147,32.0245267 18.9368281,31.7749401 18.9368281,31.4674137 C18.9368281,31.1598873 19.1864147,30.9103007 19.4939411,30.9103007 C19.8014674,30.9103007 20.0510541,31.1598873 20.0510541,31.4674137 C20.0510541,31.7749401 19.8020245,32.0245267 19.4939411,32.0245267 Z M20.6081671,30.9103007 C20.3006407,30.9103007 20.0510541,30.6607141 20.0510541,30.3531877 C20.0510541,30.0456613 20.3006407,29.7960747 20.6081671,29.7960747 C20.9156934,29.7960747 21.1652801,30.0456613 21.1652801,30.3531877 C21.1652801,30.6607141 20.9162505,30.9103007 20.6081671,30.9103007 Z M21.7223931,29.7960747 C21.4148667,29.7960747 21.1652801,29.5464881 21.1652801,29.2389617 C21.1652801,28.9314353 21.4148667,28.6818487 21.7223931,28.6818487 C22.0299194,28.6818487 22.2795061,28.9314353 22.2795061,29.2389617 C22.2795061,29.5464881 22.0304766,29.7960747 21.7223931,29.7960747 Z M22.8366191,28.6818487 C22.5290927,28.6818487 22.2795061,28.4322621 22.2795061,28.1247357 C22.2795061,27.8172093 22.5290927,27.5676227 22.8366191,27.5676227 C23.1441454,27.5676227 23.3937321,27.8172093 23.3937321,28.1247357 C23.3937321,28.4322621 23.1447026,28.6818487 22.8366191,28.6818487 Z M22.8366191,26.4533967 C22.5290927,26.4533967 22.2795061,26.20381 22.2795061,25.8962837 C22.2795061,25.5887573 22.5290927,25.3391707 22.8366191,25.3391707 C23.1441454,25.3391707 23.3937321,25.5887573 23.3937321,25.8962837 C23.3937321,26.20381 23.1447026,26.4533967 22.8366191,26.4533967 Z M23.9508451,25.3391707 C23.6433187,25.3391707 23.3937321,25.089584 23.3937321,24.7820577 C23.3937321,24.4745313 23.6433187,24.2249447 23.9508451,24.2249447 C24.2583714,24.2249447 24.5079581,24.4745313 24.5079581,24.7820577 C24.5079581,25.089584 24.2589286,25.3391707 23.9508451,25.3391707 Z M25.0650711,24.2249447 C24.7575447,24.2249447 24.5079581,23.975358 24.5079581,23.6678317 C24.5079581,23.3603053 24.7575447,23.1107187 25.0650711,23.1107187 C25.3725975,23.1107187 25.6221841,23.3603053 25.6221841,23.6678317 C25.6221841,23.975358 25.3731546,24.2249447 25.0650711,24.2249447 Z M26.1792971,23.1107187 C25.8717707,23.1107187 25.6221841,22.861132 25.6221841,22.5536057 C25.6221841,22.2460793 25.8717707,21.9964927 26.1792971,21.9964927 C26.4868235,21.9964927 26.7364101,22.2460793 26.7364101,22.5536057 C26.7364101,22.861132 26.4873806,23.1107187 26.1792971,23.1107187 Z M26.1792971,20.8822667 C25.8717707,20.8822667 25.6221841,20.63268 25.6221841,20.3251537 C25.6221841,20.0176273 25.8717707,19.7680407 26.1792971,19.7680407 C26.4868235,19.7680407 26.7364101,20.0176273 26.7364101,20.3251537 C26.7364101,20.63268 26.4873806,20.8822667 26.1792971,20.8822667 Z M27.2935231,19.7680407 C26.9859967,19.7680407 26.7364101,19.518454 26.7364101,19.2109276 C26.7364101,18.9034013 26.9859967,18.6538146 27.2935231,18.6538146 C27.6010495,18.6538146 27.8506361,18.9034013 27.8506361,19.2109276 C27.8506361,19.518454 27.6016066,19.7680407 27.2935231,19.7680407 Z M28.4077491,18.6538146 C28.1002227,18.6538146 27.8506361,18.404228 27.8506361,18.0967016 C27.8506361,17.7891753 28.1002227,17.5395886 28.4077491,17.5395886 C28.7152755,17.5395886 28.9648621,17.7891753 28.9648621,18.0967016 C28.9648621,18.404228 28.7158326,18.6538146 28.4077491,18.6538146 Z M28.4077491,16.4253626 C28.1002227,16.4253626 27.8506361,16.175776 27.8506361,15.8682496 C27.8506361,15.5607233 28.1002227,15.3111366 28.4077491,15.3111366 C28.7152755,15.3111366 28.9648621,15.5607233 28.9648621,15.8682496 C28.9648621,16.175776 28.7158326,16.4253626 28.4077491,16.4253626 Z M28.4077491,14.1969106 C28.1002227,14.1969106 27.8506361,13.947324 27.8506361,13.6397976 C27.8506361,13.3322713 28.1002227,13.0826846 28.4077491,13.0826846 C28.7152755,13.0826846 28.9648621,13.3322713 28.9648621,13.6397976 C28.9648621,13.947324 28.7158326,14.1969106 28.4077491,14.1969106 Z"
                      id="Shape" fill="#9B9B9B" class="shadable-fill" fill-rule="nonzero"></path>
                <path d="M18.6704111,24.1954121 C18.5771036,24.1954121 18.4832583,24.1806952 18.3910264,24.1504587 C17.9925201,24.0198799 17.7392185,23.5930906 17.7825111,23.1778072 L18.3754304,17.47542 L15.9298063,17.47542 C15.607398,17.47542 15.3097283,17.3397572 15.1516165,17.059869 C14.9935047,16.7802484 14.9994204,16.4559421 15.1669437,16.1819406 L20.2042033,7.94102658 C20.3698442,7.66943337 20.6626738,7.51851852 20.9673348,7.51851852 C21.0713982,7.51851852 21.1765372,7.53912214 21.2787183,7.57685085 C21.6799135,7.72562507 21.9184258,8.11522085 21.8471679,8.53532069 L20.9622257,13.7293068 L23.7982892,13.7293068 C24.1185463,13.7293068 24.4146026,13.9233019 24.5735211,14.1999791 C24.7324396,14.4769239 24.7297506,14.828791 24.5670676,15.1033276 L19.4394584,23.752568 C19.2754308,24.0292452 18.9796434,24.1954121 18.6704111,24.1954121 Z"
                      id="Shape" fill="#0F0F0F" fill-rule="nonzero"></path>
            </g>
        </g>
    </g>
</svg>
