<?xml version="1.0" encoding="UTF-8"?>
<svg width="32px" height="29px" viewBox="0 0 32 29" version="1.1" xmlns="http://www.w3.org/2000/svg"
     xmlns:xlink="http://www.w3.org/1999/xlink">
    <!-- Generator: Sketch 47.1 (45422) - http://www.bohemiancoding.com/sketch -->
    <title>work</title>
    <desc>Created with Sketch.</desc>
    <defs></defs>
    <g id="Page-1" stroke="none" stroke-width="1" fill="none" fill-rule="evenodd">
        <g id="home" transform="translate(-316.000000, -736.000000)" fill-rule="nonzero" fill="#9B9B9B"
           class="shadable-fill">
            <g id="work" transform="translate(316.000000, 736.000000)">
                <path d="M7.82724929,16.330603 L10.6214766,13.3387697 C11.0016608,12.931803 11.0463218,12.2809727 10.7253374,11.8247939 L10.4316022,11.4073697 C10.2354596,11.1287061 9.9352821,10.9688545 9.60794241,10.9688545 C9.33161895,10.9688545 9.07044366,11.0838879 8.87290809,11.2923364 L4.82799933,15.5564788 C4.42291646,15.9832182 4.42291646,16.6779879 4.82791227,17.1049909 L8.87282103,21.3686939 C9.07061778,21.5773182 9.33170601,21.6922636 9.60794241,21.6922636 L9.60794241,21.6922636 C9.93519504,21.6922636 10.2354596,21.5324121 10.4315152,21.2537485 L10.7254244,20.8363242 C11.0464088,20.3802333 11.0016608,19.7293152 10.6214766,19.3224364 L7.82724929,16.330603 Z"
                      id="Shape"></path>
                <path d="M17.7580914,10.6772727 L17.215195,10.6772727 C16.6931056,10.6772727 16.1898209,11.0454848 16.0183158,11.5432303 L12.87333,20.6742758 C12.7653775,20.9874758 12.8060338,21.3364424 12.9848518,21.5903242 C13.1636698,21.8442939 13.4547062,22.0136364 13.7833517,22.0136364 L14.3258999,22.0136364 C14.8479022,22.0136364 15.3512741,21.6304848 15.5227792,21.1328273 L18.667852,11.9941364 C18.7757174,11.6807606 18.7350611,11.3431303 18.5563302,11.0891606 C18.3775992,10.8352788 18.0865629,10.6772727 17.7580914,10.6772727 Z"
                      id="Shape"></path>
                <path d="M22.6687092,11.2924242 C22.4708254,11.0838 22.2097372,10.9688545 21.9335878,10.9688545 C21.6062481,10.9688545 21.3060707,11.1287061 21.109928,11.4074576 L20.8162799,11.8247061 C20.4952084,12.2808848 20.5398694,12.931803 20.9200536,13.3386818 L23.7145421,16.330603 L20.9201406,19.3222606 C20.5399565,19.7292273 20.4952084,20.3800576 20.8161929,20.8361485 L21.109928,21.2536606 C21.3060707,21.5323242 21.6062481,21.6921758 21.9335008,21.6921758 L21.9335878,21.6921758 C22.2097372,21.6921758 22.4708254,21.5772303 22.6686221,21.3686939 L26.7136179,17.1048152 C27.1183526,16.6780758 27.1184396,15.9834818 26.7136179,15.5563909 L22.6687092,11.2924242 Z"
                      id="Shape"></path>
                <path d="M28.9033986,0.0439393939 L2.61175289,0.0439393939 C1.17163235,0.0439393939 -7.10542736e-15,1.22661212 -7.10542736e-15,2.68030303 L-7.10542736e-15,26.319697 C-7.10542736e-15,27.7733879 1.17163235,28.9560606 2.61175289,28.9560606 L28.9033986,28.9560606 C30.3435192,28.9560606 31.5151515,27.7733879 31.5151515,26.319697 L31.5151515,2.68030303 C31.5151515,1.22661212 30.3435192,0.0439393939 28.9033986,0.0439393939 Z M10.2587042,2.62643333 C10.7527608,2.62643333 11.1533166,3.03076364 11.1533166,3.52947576 C11.1533166,4.02818788 10.7527608,4.43251818 10.2587042,4.43251818 C9.76464758,4.43251818 9.36409175,4.02818788 9.36409175,3.52947576 C9.36409175,3.03076364 9.76464758,2.62643333 10.2587042,2.62643333 Z M7.08403147,2.62643333 C7.57808806,2.62643333 7.9786439,3.03076364 7.9786439,3.52947576 C7.9786439,4.02818788 7.57808806,4.43251818 7.08403147,4.43251818 C6.58997489,4.43251818 6.18941905,4.02818788 6.18941905,3.52947576 C6.18941905,3.03076364 6.58988783,2.62643333 7.08403147,2.62643333 Z M3.90927172,2.62643333 C4.40332831,2.62643333 4.80388415,3.03076364 4.80388415,3.52947576 C4.80388415,4.02818788 4.40332831,4.43251818 3.90927172,4.43251818 C3.41521513,4.43251818 3.0146593,4.02818788 3.0146593,3.52947576 C3.0146593,3.03076364 3.41521513,2.62643333 3.90927172,2.62643333 Z M28.9033986,26.319697 L2.61175289,26.319697 L2.61175289,6.28333333 L28.9036598,6.28333333 L28.9050527,26.319697 L28.9033986,26.319697 Z"
                      id="Shape"
                      transform="translate(15.757576, 14.500000) rotate(-360.000000) translate(-15.757576, -14.500000) "></path>
            </g>
        </g>
    </g>
</svg>
